<svg version="1.1" id="Layer_1" xmlns="http://www.w3.org/2000/svg" xmlns:xlink="http://www.w3.org/1999/xlink" x="0px" y="0px"
	 width="100%" viewBox="0 0 90 90" enable-background="new 0 0 90 90" xml:space="preserve">
<path fill="#000000" opacity="1.000000" stroke="none" 
	d="
M56.000000,91.000000 
	C37.333336,91.000000 19.166674,91.000000 1.000007,91.000000 
	C1.000005,61.000008 1.000005,31.000017 1.000002,1.000019 
	C30.999987,1.000013 60.999973,1.000013 90.999969,1.000006 
	C90.999985,30.999979 90.999985,60.999958 90.999992,90.999969 
	C79.500000,91.000000 68.000000,91.000000 56.000000,91.000000 
M74.001930,31.996582 
	C74.001930,31.996582 74.059746,31.985485 73.926346,31.458096 
	C73.621559,31.287783 73.316772,31.117470 73.009987,31.002220 
	C73.009987,31.002220 73.044266,30.959028 72.863770,30.399069 
	C72.265236,29.910679 71.666695,29.422289 70.920288,28.446558 
	C70.638931,28.273277 70.357582,28.099997 69.918930,27.441584 
	C69.637436,27.268200 69.355949,27.094816 68.753021,26.292719 
	C65.526665,24.836073 62.300308,23.379427 58.685745,21.257940 
	C53.095863,21.488222 47.505981,21.718504 41.979717,21.980856 
	C41.979717,21.980856 41.953163,21.914745 41.319832,22.166759 
	C40.193981,22.742699 39.068134,23.318638 37.223080,23.997480 
	C22.193657,31.551868 20.018841,42.865826 22.329565,55.804691 
	C24.810463,69.696449 38.084194,79.000771 50.945168,77.561653 
	C51.230518,73.792534 51.522354,69.937737 51.971565,65.141548 
	C51.971565,60.218418 51.971565,55.295288 51.971565,50.000092 
	C55.195187,50.000092 57.978485,50.132946 60.743771,49.966503 
	C64.210793,49.757824 67.663033,49.303631 71.488678,48.962166 
	C71.488678,48.962166 71.830139,48.827385 72.751572,48.965004 
	C75.127480,48.965004 77.503395,48.965004 80.527054,48.965004 
	C79.907623,46.408543 79.475067,44.623344 78.993767,42.118134 
	C77.604179,39.135189 76.214592,36.152248 74.926270,32.588707 
	C74.625114,32.372982 74.323959,32.157257 74.001930,31.996582 
z"/>
<path fill="#F39F12" opacity="1.000000" stroke="none" 
	d="
M71.830139,48.827385 
	C71.830139,48.827385 71.488678,48.962166 71.051788,48.910110 
	C70.447632,48.817970 70.280365,48.777893 69.725922,48.579407 
	C63.245777,48.659760 57.152805,48.898518 50.992275,49.591576 
	C51.221203,55.391563 51.517696,60.737251 51.814194,66.082939 
	C51.522354,69.937737 51.230518,73.792534 50.945168,77.561653 
	C38.084194,79.000771 24.810463,69.696449 22.329565,55.804691 
	C20.018841,42.865826 22.193657,31.551868 37.631790,24.007557 
	C38.040504,24.017633 38.140717,24.138882 38.150345,24.494925 
	C38.911343,29.870665 42.598816,32.052834 46.821266,33.547386 
	C48.169594,34.024628 50.396366,34.502441 51.072376,33.828178 
	C52.147594,32.755749 52.831963,30.613573 52.563869,29.125198 
	C52.401772,28.225298 50.154976,27.650938 48.800285,27.027098 
	C46.558968,25.994963 44.281654,25.040985 42.015175,23.697346 
	C41.991615,22.865326 41.972389,22.390036 41.953163,21.914745 
	C41.953163,21.914745 41.979717,21.980856 42.316917,22.012516 
	C43.149075,22.077333 43.644035,22.110491 44.384266,22.376026 
	C46.069000,23.364584 47.542133,24.816933 48.941750,24.749243 
	C53.538914,24.526907 55.533817,26.603045 55.981365,30.951616 
	C56.293568,33.985172 58.241371,34.660110 60.429279,32.819378 
	C62.880951,30.756727 64.864838,31.288675 67.005219,33.467407 
	C67.041573,36.756390 66.926125,39.602715 67.217209,42.406834 
	C67.299072,43.195454 68.574417,43.860180 69.302338,44.581734 
	C69.635139,43.641609 70.317261,42.670284 70.236572,41.767097 
	C69.973404,38.821312 69.431854,35.900398 69.186394,32.764072 
	C69.911995,32.043514 70.448601,31.528793 71.328796,31.016796 
	C72.129677,30.999353 72.586967,30.979191 73.044266,30.959026 
	C73.044266,30.959028 73.009987,31.002220 73.137085,31.192631 
	C73.529373,31.583857 73.794563,31.784670 74.059746,31.985485 
	C74.059746,31.985485 74.001930,31.996582 74.103279,32.198624 
	C74.366364,32.693241 74.573158,32.949451 74.825005,33.169304 
	C76.214592,36.152248 77.604179,39.135189 78.848724,42.818966 
	C78.386215,47.845036 74.914597,48.085510 71.830139,48.827385 
z"/>
<path fill="#FFF6D9" opacity="1.000000" stroke="none" 
	d="
M70.113106,48.737812 
	C70.280365,48.777893 70.447632,48.817970 70.868271,48.906727 
	C67.663033,49.303631 64.210793,49.757824 60.743771,49.966503 
	C57.978485,50.132946 55.195187,50.000092 51.971565,50.000092 
	C51.971565,55.295288 51.971565,60.218418 51.892876,65.612244 
	C51.517696,60.737251 51.221203,55.391563 51.456055,49.563042 
	C58.029301,48.966076 64.071205,48.851944 70.113106,48.737812 
z"/>
<path fill="#EBA134" opacity="1.000000" stroke="none" 
	d="
M44.138992,22.143650 
	C43.644035,22.110491 43.149075,22.077333 42.285110,21.996479 
	C47.505981,21.718504 53.095863,21.488222 58.800034,21.678864 
	C58.914322,22.099787 58.754780,22.276876 58.350258,22.214659 
	C53.343491,22.149509 48.741241,22.146580 44.138992,22.143650 
z"/>
<path fill="#EBA134" opacity="1.000000" stroke="none" 
	d="
M58.994137,22.011284 
	C62.300308,23.379427 65.526665,24.836073 68.828102,26.725830 
	C68.903183,27.158939 68.742149,27.403505 68.432632,27.370466 
	C64.360306,26.835440 60.629005,26.275112 58.754780,22.276876 
	C58.754780,22.276876 58.914322,22.099787 58.994137,22.011284 
z"/>
<path fill="#E1A652" opacity="1.000000" stroke="none" 
	d="
M72.290855,48.896194 
	C74.914597,48.085510 78.386215,47.845036 78.873093,43.178970 
	C79.475067,44.623344 79.907623,46.408543 80.527054,48.965004 
	C77.503395,48.965004 75.127480,48.965004 72.290855,48.896194 
z"/>
<path fill="#EBA134" opacity="1.000000" stroke="none" 
	d="
M41.636497,22.040752 
	C41.972389,22.390036 41.991615,22.865326 41.625092,23.678307 
	C40.206467,24.056959 39.173592,24.097921 38.140717,24.138882 
	C38.140717,24.138882 38.040504,24.017633 37.991394,23.956104 
	C39.068134,23.318638 40.193981,22.742699 41.636497,22.040752 
z"/>
<path fill="#EBA134" opacity="1.000000" stroke="none" 
	d="
M72.954018,30.679047 
	C72.586967,30.979191 72.129677,30.999353 71.304443,30.709839 
	C70.864777,29.997234 70.793037,29.594305 70.809410,29.128883 
	C70.897514,29.066387 71.068161,28.933897 71.068161,28.933897 
	C71.666695,29.422289 72.265236,29.910679 72.954018,30.679047 
z"/>
<path fill="#EBA134" opacity="1.000000" stroke="none" 
	d="
M68.988815,27.040186 
	C69.355949,27.094816 69.637436,27.268200 69.927208,27.754118 
	C69.935486,28.066652 69.795815,28.207657 69.613091,28.082691 
	C69.198967,27.775469 68.969559,27.590729 68.742149,27.403505 
	C68.742149,27.403505 68.903183,27.158939 68.988815,27.040186 
z"/>
<path fill="#EBA134" opacity="1.000000" stroke="none" 
	d="
M70.005859,27.996685 
	C70.357582,28.099997 70.638931,28.273277 70.994225,28.690228 
	C71.068161,28.933897 70.897514,29.066387 70.642464,28.977962 
	C70.164352,28.684683 69.967155,28.457390 69.795815,28.207657 
	C69.795815,28.207657 69.935486,28.066652 70.005859,27.996685 
z"/>
<path fill="#EBA134" opacity="1.000000" stroke="none" 
	d="
M73.993042,31.721790 
	C73.794563,31.784670 73.529373,31.583857 73.138092,31.165100 
	C73.316772,31.117470 73.621559,31.287783 73.993042,31.721790 
z"/>
<path fill="#EBA134" opacity="1.000000" stroke="none" 
	d="
M74.875641,32.879005 
	C74.573158,32.949451 74.366364,32.693241 74.113716,32.171101 
	C74.323959,32.157257 74.625114,32.372982 74.875641,32.879005 
z"/>
<path fill="#F69E06" opacity="1.000000" stroke="none" 
	d="
M69.613091,28.082691 
	C69.967155,28.457390 70.164352,28.684683 70.554359,29.040457 
	C70.793037,29.594305 70.864777,29.997234 70.960861,30.707119 
	C70.448601,31.528793 69.911995,32.043514 68.854744,32.772728 
	C67.891853,32.994404 67.449615,33.001583 67.007370,33.008762 
	C64.864838,31.288675 62.880951,30.756727 60.429279,32.819378 
	C58.241371,34.660110 56.293568,33.985172 55.981365,30.951616 
	C55.533817,26.603045 53.538914,24.526907 48.941750,24.749243 
	C47.542133,24.816933 46.069000,23.364584 44.384266,22.376026 
	C48.741241,22.146580 53.343491,22.149509 58.350258,22.214659 
	C60.629005,26.275112 64.360306,26.835440 68.432632,27.370466 
	C68.969559,27.590729 69.198967,27.775469 69.613091,28.082691 
z"/>
<path fill="#F69E06" opacity="1.000000" stroke="none" 
	d="
M38.150345,24.494925 
	C39.173592,24.097921 40.206467,24.056959 41.629425,24.035038 
	C44.281654,25.040985 46.558968,25.994963 48.800285,27.027098 
	C50.154976,27.650938 52.401772,28.225298 52.563869,29.125198 
	C52.831963,30.613573 52.147594,32.755749 51.072376,33.828178 
	C50.396366,34.502441 48.169594,34.024628 46.821266,33.547386 
	C42.598816,32.052834 38.911343,29.870665 38.150345,24.494925 
z"/>
<path fill="#F69D1D" opacity="1.000000" stroke="none" 
	d="
M67.005219,33.467407 
	C67.449615,33.001583 67.891853,32.994404 68.665749,32.978569 
	C69.431854,35.900398 69.973404,38.821312 70.236572,41.767097 
	C70.317261,42.670284 69.635139,43.641609 69.302338,44.581734 
	C68.574417,43.860180 67.299072,43.195454 67.217209,42.406834 
	C66.926125,39.602715 67.041573,36.756390 67.005219,33.467407 
z"/>
<path fill="#E1A652" opacity="1.000000" stroke="none" 
	d="
M69.725922,48.579407 
	C64.071205,48.851944 58.029301,48.966076 51.523621,49.108742 
	C57.152805,48.898518 63.245777,48.659760 69.725922,48.579407 
z"/>
</svg>